<svg width="185" height="25" viewBox="0 0 185 25" fill="none" xmlns="http://www.w3.org/2000/svg">
<g clip-path="url(#clip0_3740_4626)">
<path d="M30.3769 23.9158C29.8237 23.9158 29.3711 23.4692 29.3711 22.9234V3.57249C29.3711 2.82822 28.8681 2.18319 28.1138 2.13357H22.9839C22.4307 2.13357 22.0283 1.6374 22.0283 1.0916C22.0283 0.545803 22.4307 0.148861 22.9839 0.0992432H37.6694C38.2226 0.0992432 38.6752 0.496186 38.6752 1.04198C38.7255 1.6374 38.2729 2.08396 37.7197 2.13357H31.3325V22.9234C31.2822 23.4692 30.8799 23.8662 30.3769 23.9158Z" fill="#0F2C52"/>
<path d="M43.7051 23.9158C43.1519 23.9158 42.6992 23.4693 42.6992 22.9235V1.09163C42.6992 0.545834 43.1519 0.148891 43.7051 0.0992737H56.3286C56.8818 0.0992737 57.2841 0.545834 57.3344 1.09163C57.3344 1.63743 56.8818 2.08399 56.3286 2.1336H46.27C45.415 2.1336 44.7612 2.77864 44.7109 3.57252V9.57628H55.1215C55.6748 9.57628 56.1274 10.0228 56.1274 10.6182C56.1274 11.164 55.6748 11.6106 55.1215 11.6106H44.7612V22.8738C44.7612 23.5189 44.2583 23.9158 43.7051 23.9158Z" fill="#0F2C52"/>
<path d="M78.0045 22.328L72.2208 13.5457C71.9693 13.0991 71.8184 12.5533 71.8687 12.0075C71.8687 11.3625 72.0699 10.7175 72.3717 10.1717L78.0045 1.58778C78.2559 1.14122 78.1553 0.595427 77.753 0.248103C77.3004 -0.0992219 76.6466 1.36718e-05 76.3448 0.446574C76.3448 0.446574 76.3448 0.54581 76.2442 0.595428L69.9576 10.122L63.7213 0.595428C63.4196 0.0992494 62.816 -0.099222 62.3131 0.198485H62.2628C61.8102 0.496192 61.7096 1.14122 62.0114 1.58778L68.8512 11.9579L62.0114 22.328C61.7096 22.7746 61.8102 23.37 62.2628 23.7173C62.7155 24.015 63.319 23.9158 63.671 23.4692H63.7213L70.0079 13.6945L76.3448 23.3204C76.6969 23.7669 77.3004 23.9158 77.8033 23.6677C78.2056 23.3204 78.3062 22.725 78.0045 22.2784" fill="#0F2C52"/>
<path d="M19.8663 23.9654C19.4639 23.9654 19.1119 23.7173 18.961 23.37L11.5176 6.00374C11.3165 5.65641 10.9644 5.40832 10.5621 5.40832C10.0592 5.40832 9.65682 5.75565 9.45564 6.20221L2.16319 23.37C1.91173 23.8661 1.30821 24.0646 0.805284 23.8661C0.302357 23.6677 0.0508925 23.1219 0.252064 22.6753L9.60652 0.793866C9.7574 0.396923 10.1095 0.148834 10.5118 0.148834C10.9141 0.148834 11.3165 0.446541 11.4674 0.843484L20.7212 22.6257C20.8218 22.8738 20.8218 23.1219 20.7212 23.37C20.6206 23.5684 20.4195 23.7669 20.2183 23.8661C20.2183 23.8661 20.0171 23.9158 19.8663 23.9654Z" fill="#0F2C52"/>
<path d="M1.10644 16.4235C0.502928 16.4235 0 15.9273 0 15.3319C0 14.7365 0.502928 14.2403 1.10644 14.2403H15.0375L15.9931 16.4235H1.10644Z" fill="#F2672A"/>
<path d="M88.5654 0H87.8613V24.015H88.5654V0Z" fill="#0F2C52"/>
<path d="M101.34 17.0189C100.485 16.5723 99.8818 15.8777 99.4292 15.0342C98.9766 14.1907 98.7754 13.1487 98.7754 12.0075C98.7754 10.8663 98.9766 9.87394 99.4292 8.98081C99.8818 8.13731 100.536 7.44266 101.34 6.9961C102.195 6.54954 103.151 6.30145 104.257 6.30145C105.364 6.30145 105.716 6.40069 106.42 6.64878C107.074 6.89687 107.627 7.19457 108.08 7.64113L107.426 9.12967C106.923 8.73273 106.42 8.43502 105.917 8.23655C105.414 8.03808 104.861 7.93884 104.308 7.93884C103.201 7.93884 102.396 8.28617 101.793 8.98081C101.189 9.67546 100.888 10.6678 100.888 12.0075C100.888 13.3472 101.189 14.3395 101.793 15.0342C102.396 15.7288 103.251 16.0762 104.358 16.0762C105.464 16.0762 105.464 15.9769 105.967 15.7785C106.47 15.58 106.973 15.2823 107.476 14.8853L108.13 16.3739C107.677 16.7708 107.124 17.1181 106.47 17.3662C105.816 17.6143 105.062 17.7135 104.308 17.7135C103.151 17.7135 102.195 17.5151 101.34 17.0189Z" fill="#0F2C52"/>
<path d="M113.562 17.0189C112.757 16.5723 112.103 15.8777 111.701 15.0342C111.248 14.1907 111.047 13.1487 111.047 12.0075C111.047 10.8663 111.248 9.82432 111.701 8.98081C112.153 8.13731 112.757 7.44266 113.562 6.9961C114.366 6.54954 115.322 6.30145 116.428 6.30145C117.535 6.30145 118.49 6.54954 119.295 6.9961C120.1 7.44266 120.703 8.13731 121.156 8.98081C121.608 9.82432 121.81 10.8663 121.81 12.0075C121.81 13.1487 121.608 14.1907 121.156 15.0342C120.703 15.8777 120.1 16.5723 119.295 17.0189C118.49 17.4655 117.535 17.7135 116.428 17.7135C115.322 17.7135 114.366 17.5151 113.562 17.0189ZM118.842 15.0342C119.446 14.3395 119.697 13.2976 119.697 11.9579C119.697 10.6182 119.395 9.62585 118.842 8.9312C118.239 8.23655 117.434 7.88922 116.378 7.88922C115.322 7.88922 114.517 8.23655 113.914 8.9312C113.31 9.62585 113.059 10.6678 113.059 11.9579C113.059 13.2479 113.36 14.2899 113.914 15.0342C114.517 15.7288 115.322 16.0762 116.378 16.0762C117.434 16.0762 118.289 15.7785 118.842 15.0342Z" fill="#0F2C52"/>
<path d="M133.075 6.45029H134.986V17.6143H133.477L127.392 9.77468V17.6143H125.48V6.45029H126.989L133.075 14.2403V6.45029Z" fill="#0F2C52"/>
<path d="M146.655 6.45038H148.566V17.6144H147.057L140.972 9.77477V17.6144H139.061V6.45038H140.569L146.655 14.2404V6.45038Z" fill="#0F2C52"/>
<path d="M152.639 17.6144V6.45038H160.183V8.03815H154.6V11.1145H159.831V12.7022H154.6V15.977H160.183V17.5648H152.639V17.6144Z" fill="#0F2C52"/>
<path d="M165.867 17.0189C165.012 16.5723 164.408 15.8777 163.956 15.0342C163.503 14.1907 163.302 13.1487 163.302 12.0075C163.302 10.8663 163.503 9.87394 163.956 8.98081C164.408 8.13731 165.062 7.44266 165.867 6.9961C166.722 6.54954 167.677 6.30145 168.784 6.30145C169.89 6.30145 170.242 6.40069 170.946 6.64878C171.65 6.89687 172.153 7.19457 172.606 7.64113L171.952 9.12967C171.449 8.73273 170.946 8.43502 170.443 8.23655C169.94 8.03808 169.387 7.93884 168.834 7.93884C167.728 7.93884 166.923 8.28617 166.319 8.98081C165.716 9.67546 165.414 10.6678 165.414 12.0075C165.414 13.3472 165.716 14.3395 166.319 15.0342C166.923 15.7288 167.778 16.0762 168.884 16.0762C169.991 16.0762 169.991 15.9769 170.494 15.7785C170.997 15.58 171.499 15.2823 172.002 14.8853L172.656 16.3739C172.204 16.7708 171.65 17.1181 170.997 17.3662C170.343 17.6143 169.588 17.7135 168.834 17.7135C167.627 17.7135 166.671 17.5151 165.867 17.0189Z" fill="#0F2C52"/>
<path d="M178.59 17.6144V8.08777H174.919V6.45038H184.374V8.08777H180.652V17.5648H178.59V17.6144Z" fill="#0F2C52"/>
</g>
<defs>
<clipPath id="clip0_3740_4626">
<rect width="184.373" height="24.015" fill="white"/>
</clipPath>
</defs>
</svg>
