<?xml version="1.0" encoding="UTF-8"?>
<svg id="Layer_2" data-name="Layer 2" xmlns="http://www.w3.org/2000/svg" viewBox="0 0 87.6 27.15">
  <defs>
    <style>
      .cls-1 {
        fill: #0f2d52;
      }

      .cls-2 {
        fill: #f2672a;
      }
    </style>
  </defs>
  <g id="Layer_1-2" data-name="Layer 1">
    <g>
      <path class="cls-1" d="M34.01,27.13c-.66,0-1.15-.59-1.15-1.11V4.01c0-1.11-.85-1.62-1.47-1.62h-5.69c-.54,0-1.08-.59-1.08-1.19S25.14.04,25.7.04h16.48c.64,0,1.11.49,1.11,1.15,0,.58-.39,1.19-1.11,1.19h-7.09v23.64c0,.5-.48,1.11-1.08,1.11"/>
      <path class="cls-1" d="M49,27.13c-.61,0-1.11-.5-1.11-1.11V1.19c0-.59.52-1.11,1.11-1.11h14.14c.59,0,1.12.52,1.12,1.11,0,.63-.52,1.19-1.12,1.19h-11.28c-.78,0-1.71.48-1.71,1.82,0,.11,0,6.67,0,6.67h11.61c.71,0,1.15.62,1.15,1.19s-.47,1.15-1.15,1.15h-11.61v12.8c0,.6-.53,1.11-1.15,1.11"/>
      <path class="cls-1" d="M87.42,25.3l-6.49-10.01c-.23-.35-.42-.97-.42-1.73,0-1.04.44-1.83.59-2.06l6.33-9.75c.2-.26.32-1.09-.27-1.52-.49-.35-1.23-.35-1.69.38l-7.03,10.84-7.03-10.84c-.22-.38-.83-.88-1.65-.41-.47.27-.65,1.07-.31,1.56l7.64,11.76-7.64,11.77c-.27.43-.3,1.21.28,1.62.39.27,1.19.25,1.6-.37l7.11-10.94,7.11,10.94c.33.51,1.12.69,1.59.37.59-.4.53-1.17.28-1.62"/>
      <path class="cls-1" d="M22.26,27.15c-.49,0-.86-.35-1-.68L12.94,6.75c-.28-.44-.65-.69-1.06-.69-.48,0-.93.35-1.22.93L2.5,26.49s-.37.89-1.49.55c-.67-.2-.78-1-.62-1.42L10.86.78c.06-.14.27-.69,1.03-.71.38,0,.86.27,1.06.78l10.37,24.76c.07.15.16.47,0,.86-.1.24-.32.46-.56.57-.24.11-.45.12-.51.12"/>
      <path class="cls-2" d="M1.25,18.59c-.69,0-1.25-.56-1.25-1.25s.56-1.25,1.25-1.25h15.63l1.05,2.5H1.25Z"/>
    </g>
  </g>
</svg>