<svg width="18" height="18" viewBox="0 0 18 18" fill="none" xmlns="http://www.w3.org/2000/svg">
<path d="M9 0C9.15155 0 9.2969 0.0592633 9.40406 0.164753C9.51123 0.270242 9.57143 0.413316 9.57143 0.5625V2.25L10.7143 2.25112C11.1689 2.25112 11.605 2.42892 11.9265 2.74538C12.248 3.06185 12.4286 3.49107 12.4286 3.93862V6.81075C11.7832 6.94042 11.2032 7.2856 10.7867 7.78787C10.3702 8.29013 10.1427 8.91863 10.1429 9.567V18H7.85714V6.7545C7.85714 6.15776 7.61633 5.58547 7.18767 5.16351C6.75902 4.74155 6.17764 4.5045 5.57143 4.5045V3.93862C5.57143 3.49107 5.75204 3.06185 6.07353 2.74538C6.39502 2.42892 6.83106 2.25112 7.28571 2.25112H8.42857V0.5625C8.42857 0.413316 8.48878 0.270242 8.59594 0.164753C8.7031 0.0592633 8.84845 0 9 0ZM6.30743 5.89387C5.98743 5.67225 5.75886 5.66437 5.56686 5.72175C5.51368 5.74193 5.4621 5.766 5.41257 5.79375L1.832 7.90875C1.57825 8.05869 1.36825 8.27074 1.22245 8.52427C1.07665 8.7778 1.00002 9.06417 1 9.3555V16.3125C1 16.7601 1.18061 17.1893 1.5021 17.5057C1.82359 17.8222 2.25963 18 2.71429 18H6.71429V6.7545C6.71428 6.59053 6.67787 6.42854 6.60759 6.27988C6.53731 6.13122 6.43486 5.99947 6.30743 5.89387ZM14.1429 7.875V7.8795H13C12.5453 7.8795 12.1093 8.05729 11.7878 8.37376C11.4663 8.69023 11.2857 9.11945 11.2857 9.567V18H15.2857C15.7404 18 16.1764 17.8222 16.4979 17.5057C16.8194 17.1893 17 16.7601 17 16.3125V9.5625C17 9.11495 16.8194 8.68572 16.4979 8.36926C16.1764 8.05279 15.7404 7.875 15.2857 7.875H14.1429Z" fill="white"/>
</svg>
