<svg width="18" height="18" viewBox="0 0 18 18" fill="none" xmlns="http://www.w3.org/2000/svg">
<g clip-path="url(#clip0_40_1574)">
<path d="M9.00006 2.12501C7.42642 2.1232 5.88512 2.57177 4.55822 3.41774C3.23131 4.26371 2.1742 5.47174 1.51176 6.89915C0.849311 8.32657 0.60919 9.91374 0.819754 11.4732C1.03032 13.0327 1.68277 14.4994 2.70006 15.7L2.85006 15.875H15.1501L15.3001 15.7C16.3173 14.4994 16.9698 13.0327 17.1804 11.4732C17.3909 9.91374 17.1508 8.32657 16.4884 6.89915C15.8259 5.47174 14.7688 4.26371 13.4419 3.41774C12.115 2.57177 10.5737 2.1232 9.00006 2.12501ZM13.3001 6.86501L10.3401 9.77001C10.4913 10.0898 10.5247 10.4529 10.4342 10.7949C10.3438 11.137 10.1353 11.4361 9.84567 11.6393C9.55604 11.8425 9.20389 11.9368 8.85146 11.9055C8.49903 11.8742 8.169 11.7194 7.9197 11.4683C7.6704 11.2172 7.51787 10.8861 7.48908 10.5335C7.46028 10.1808 7.55707 9.82936 7.76234 9.54117C7.9676 9.25298 8.26814 9.04663 8.61082 8.95858C8.95351 8.87053 9.31629 8.90646 9.63506 9.06001L12.5901 6.15501L13.3001 6.86501ZM1.80006 9.95001H3.50006V10.95H1.78006C1.78006 10.755 1.75506 10.565 1.75506 10.365C1.75506 10.165 1.76506 10.09 1.77506 9.95001H1.80006ZM4.24006 4.95001L5.47006 6.18001L4.73506 6.87001L3.50006 5.64501C3.7222 5.39258 3.96108 5.15538 4.21506 4.93501L4.24006 4.95001ZM9.50006 4.89501H8.50006V3.14501H9.00006C9.18506 3.14501 9.35006 3.14501 9.50006 3.17001V4.89501ZM16.2451 10.37C16.2451 10.565 16.2451 10.765 16.2201 10.955H14.4601V9.95501H16.2251C16.2351 10.09 16.2451 10.23 16.2451 10.37Z" fill="white"/>
</g>
<defs>
<clipPath id="clip0_40_1574">
<rect width="18" height="18" fill="white"/>
</clipPath>
</defs>
</svg>
