<svg width="25" height="24" viewBox="0 0 25 24" fill="none" xmlns="http://www.w3.org/2000/svg">
<path d="M7.6947 4.90802C10.8719 4.63564 14.067 4.63564 17.2442 4.90802L18.776 5.03802C19.2671 5.08029 19.7395 5.24413 20.1494 5.51437C20.5593 5.78462 20.8934 6.15253 21.1208 6.58402C21.1474 6.63726 21.1526 6.69842 21.1355 6.75531C21.1184 6.8122 21.0802 6.86066 21.0286 6.89102L14.6764 10.771C14.0079 11.1793 13.2388 11.3993 12.4525 11.4073C11.6662 11.4152 10.8928 11.2107 10.2159 10.816L3.82218 7.08802C3.77178 7.05991 3.73342 7.01473 3.71422 6.96085C3.69502 6.90697 3.69628 6.84805 3.71776 6.79502C3.92495 6.31048 4.26224 5.89089 4.6933 5.58146C5.12435 5.27202 5.63282 5.08447 6.16394 5.03902L7.6947 4.90802Z" fill="#D8D8D8"/>
<path d="M3.71291 8.76702C3.67669 8.74585 3.63566 8.73399 3.59358 8.73254C3.5515 8.73108 3.50973 8.74007 3.47209 8.75868C3.43446 8.7773 3.40216 8.80494 3.37817 8.83906C3.35418 8.87319 3.33926 8.91272 3.33478 8.95402C3.07773 11.4719 3.1404 14.0115 3.52131 16.514C3.61982 17.1551 3.93401 17.7448 4.41335 18.1885C4.89269 18.6321 5.50934 18.9038 6.16416 18.96L7.69492 19.091C10.873 19.364 14.0684 19.364 17.2465 19.091L18.7772 18.961C19.4323 18.9045 20.0491 18.6322 20.5283 18.188C21.0075 17.7438 21.3212 17.1535 21.4191 16.512C21.811 13.9366 21.8659 11.3222 21.5823 8.73301C21.5774 8.69155 21.5619 8.65198 21.5374 8.61797C21.5128 8.58396 21.48 8.55661 21.4419 8.53846C21.4038 8.52031 21.3616 8.51194 21.3194 8.51414C21.2771 8.51633 21.2361 8.52902 21.2001 8.55101L15.4775 12.045C14.5732 12.5971 13.5331 12.8946 12.4697 12.9053C11.4063 12.9161 10.3602 12.6397 9.44465 12.106L3.71291 8.76702Z" fill="#D8D8D8"/>
</svg>
