<svg width="18" height="18" viewBox="0 0 18 18" fill="none" xmlns="http://www.w3.org/2000/svg">
<g clip-path="url(#clip0_40_1583)">
<path d="M13.9875 2.13752L14.445 5.03252L17.0775 6.37502L15.75 9.00002L17.085 11.625L14.43 12.9675L13.9725 15.8625L11.055 15.405L8.97754 17.475L6.89254 15.375L3.99754 15.855L3.53254 12.9375L0.915039 11.6025L2.25004 8.97752L0.922539 6.37502L3.55504 5.01752L4.01254 2.14502L6.91504 2.62502L9.00004 0.517517L11.0775 2.59502L13.9875 2.13752ZM7.12504 5.25002C6.82667 5.25002 6.54052 5.36854 6.32954 5.57952C6.11857 5.7905 6.00004 6.07665 6.00004 6.37502C6.00004 6.67339 6.11857 6.95953 6.32954 7.17051C6.54052 7.38149 6.82667 7.50002 7.12504 7.50002C7.42341 7.50002 7.70956 7.38149 7.92053 7.17051C8.13151 6.95953 8.25004 6.67339 8.25004 6.37502C8.25004 6.07665 8.13151 5.7905 7.92053 5.57952C7.70956 5.36854 7.42341 5.25002 7.12504 5.25002ZM10.875 10.5C10.5767 10.5 10.2905 10.6185 10.0795 10.8295C9.86857 11.0405 9.75004 11.3266 9.75004 11.625C9.75004 11.9234 9.86857 12.2095 10.0795 12.4205C10.2905 12.6315 10.5767 12.75 10.875 12.75C11.1734 12.75 11.4596 12.6315 11.6705 12.4205C11.8815 12.2095 12 11.9234 12 11.625C12 11.3266 11.8815 11.0405 11.6705 10.8295C11.4596 10.6185 11.1734 10.5 10.875 10.5ZM6.30754 12.75L12.75 6.30752L11.6925 5.25002L5.25004 11.6925L6.30754 12.75Z" fill="white"/>
</g>
<defs>
<clipPath id="clip0_40_1583">
<rect width="18" height="18" fill="white"/>
</clipPath>
</defs>
</svg>
