<svg width="26" height="24" viewBox="0 0 26 24" fill="none" xmlns="http://www.w3.org/2000/svg">
<path d="M12.8722 4C13.9477 4 14.9791 4.42143 15.7395 5.17157C16.5 5.92172 16.9272 6.93913 16.9272 8C16.9272 9.06087 16.5 10.0783 15.7395 10.8284C14.9791 11.5786 13.9477 12 12.8722 12C11.7968 12 10.7653 11.5786 10.0049 10.8284C9.24443 10.0783 8.81721 9.06087 8.81721 8C8.81721 6.93913 9.24443 5.92172 10.0049 5.17157C10.7653 4.42143 11.7968 4 12.8722 4ZM12.8722 14C17.353 14 20.9822 15.79 20.9822 18V20H4.76221V18C4.76221 15.79 8.39143 14 12.8722 14Z" fill="#D8D8D8"/>
</svg>
